<?xml version="1.0" standalone="no"?>
<!DOCTYPE svg PUBLIC "-//W3C//DTD SVG 20010904//EN"
 "http://www.w3.org/TR/2001/REC-SVG-20010904/DTD/svg10.dtd">
<svg version="1.0" xmlns="http://www.w3.org/2000/svg"
 width="512.000000pt" height="512.000000pt" viewBox="0 0 512.000000 512.000000"
 preserveAspectRatio="xMidYMid meet">
<metadata>
Created by potrace 1.14, written by Peter Selinger 2001-2017
</metadata>
<g transform="translate(0.000000,512.000000) scale(0.100000,-0.100000)"
fill="#000000" stroke="none">
<path d="M747 5016 c-16 -15 -27 -36 -28 -53 0 -15 -3 -80 -7 -143 -7 -123 -9
-566 -3 -640 13 -164 61 -439 102 -585 29 -100 100 -318 108 -330 4 -5 16 -32
26 -60 10 -27 32 -79 50 -115 17 -36 34 -73 37 -82 8 -19 33 -29 -482 192
-195 84 -368 154 -385 156 -45 7 -80 -25 -79 -73 0 -34 26 -72 256 -380 325
-433 407 -527 589 -683 114 -98 118 -102 196 -155 l73 -50 1 -62 c1 -35 2 -73
2 -85 1 -23 -1 -23 -141 -28 -138 -5 -144 -6 -163 -30 -19 -24 -19 -40 -16
-515 3 -472 4 -493 26 -564 100 -335 358 -571 694 -636 106 -21 1809 -21 1914
0 321 62 572 281 679 591 30 88 41 190 43 388 1 110 3 202 5 203 1 2 27 -32
56 -75 30 -42 58 -78 62 -80 4 -2 8 -9 8 -16 0 -7 8 -21 18 -32 9 -11 26 -33
38 -49 11 -17 41 -59 66 -95 362 -520 419 -598 443 -604 59 -15 112 29 101 85
-4 23 -538 1313 -634 1534 -31 72 -91 164 -146 224 -106 114 -305 213 -448
223 -21 1 -38 5 -38 10 0 12 85 67 154 99 180 84 402 73 581 -29 39 -23 120
-94 235 -208 99 -98 186 -175 200 -179 35 -8 73 8 89 39 13 23 11 37 -13 125
-87 312 -269 541 -538 679 -155 79 -300 111 -493 107 -106 -1 -150 -7 -235
-30 -96 -25 -247 -91 -310 -134 -14 -10 -30 -21 -37 -24 -10 -6 22 57 102 198
185 329 556 875 637 937 90 69 199 103 305 94 84 -6 138 -25 228 -79 39 -23
78 -46 87 -52 10 -5 51 -30 90 -55 88 -53 138 -59 169 -20 25 34 24 47 -12
137 -85 216 -185 346 -337 439 -137 83 -252 114 -412 110 -234 -6 -396 -87
-587 -293 -255 -274 -469 -599 -616 -933 -36 -81 -180 -427 -189 -453 -17 -47
-17 -26 -2 53 8 41 17 86 20 100 3 14 10 43 16 65 5 22 12 50 14 63 18 98 176
569 230 689 13 28 24 54 24 57 0 19 160 345 234 476 106 188 188 320 281 448
74 104 83 128 61 170 -20 39 -50 45 -168 37 -372 -26 -725 -208 -959 -495 -48
-59 -119 -157 -119 -165 0 -2 -15 -28 -33 -57 -45 -70 -156 -302 -196 -406
-45 -117 -106 -319 -125 -415 -4 -15 -8 -37 -11 -49 -13 -65 -35 -217 -35
-245 0 -18 -4 -33 -9 -33 -10 0 -7 279 4 340 3 19 15 83 26 142 11 59 22 120
25 135 2 16 6 37 9 49 3 12 7 39 10 60 4 21 8 46 10 54 4 12 33 170 59 315 3
17 8 39 10 50 30 158 37 212 27 238 -11 28 -45 47 -84 47 -40 0 -224 -217
-322 -379 -43 -73 -119 -224 -130 -261 -4 -14 -13 -38 -20 -55 -38 -87 -84
-272 -102 -410 -17 -136 -9 -440 17 -575 18 -96 10 -96 -24 0 -19 52 -102 289
-186 525 -83 237 -162 459 -175 495 -13 36 -51 143 -84 238 -34 94 -88 247
-120 340 -33 92 -85 239 -116 327 -31 88 -62 166 -69 173 -7 7 -28 15 -47 18
-27 5 -40 1 -62 -20z m2859 -3117 c27 -7 72 -22 99 -35 l50 -22 -167 -1 c-93
-1 -168 2 -168 7 0 4 9 22 20 39 18 31 22 32 68 28 27 -2 71 -9 98 -16z"/>
</g>
</svg>
